<svg width="60" height="60" viewBox="0 0 60 60" fill="none" xmlns="http://www.w3.org/2000/svg">
<rect width="60" height="60" rx="10" fill="white"/>
<path d="M20 28V20C20 17.3478 21.0536 14.8043 22.9289 12.9289C24.8043 11.0536 27.3478 10 30 10C32.6522 10 35.1957 11.0536 37.0711 12.9289C38.9464 14.8043 40 17.3478 40 20V28M16 28H44C46.2091 28 48 29.7909 48 32V46C48 48.2091 46.2091 50 44 50H16C13.7909 50 12 48.2091 12 46V32C12 29.7909 13.7909 28 16 28Z" stroke="#1E1E1E" stroke-width="4" stroke-linecap="round" stroke-linejoin="round"/>
</svg>
